# This file uses centimeters as units for non-parametric coordinates.

mtllib file.mtl
g default
v 6.659956 8.463062 -0.295932
v 6.659956 8.463062 -0.755179
v 4.819910 10.303109 -0.755179
v 4.819910 10.303109 -0.295932
v 0.298642 2.494223 -0.755179
v 0.298642 2.494223 -0.295932
v 0.298642 10.303109 -0.295932
v 0.298642 10.303109 -0.755179
v 6.659956 2.494223 -0.295932
v 6.659956 2.494223 -0.755179
v 4.301917 7.993850 -0.925949
v 4.818224 7.993850 -0.925949
v 4.301917 7.993850 -0.112931
v 4.818224 7.993850 -0.112931
v 4.301917 10.971526 -0.112931
v 4.818224 10.971526 -0.112931
v 4.301917 10.971526 -0.925949
v 4.818224 10.971526 -0.925949
v 6.659956 7.991820 -0.112931
v 4.302531 7.991820 -0.112931
v 4.302531 7.991820 -0.925949
v 6.659956 7.991820 -0.925949
v 6.614891 8.508127 -0.925949
v 4.302531 8.508127 -0.925949
v 4.302531 8.508127 -0.112931
v 6.614891 8.508127 -0.112931
v 6.659956 8.463062 -0.925949
v 6.659956 8.463062 -0.112931
v 7.202692 8.833125 -0.111323
v 7.202692 8.833125 -0.926118
v 5.041792 10.994025 -0.926118
v 5.041792 10.994025 -0.111323
v -0.267859 1.823485 -0.926118
v -0.267859 1.823485 -0.111323
v -0.267859 10.994025 -0.111323
v -0.267859 10.994025 -0.926118
v 7.202692 1.823485 -0.111323
v 7.202692 1.823485 -0.926118
v 0.298642 2.494223 -0.926118
v 6.659956 2.494223 -0.926118
v 6.659956 8.463062 -0.926118
v 4.819910 10.303109 -0.926118
v 0.298642 10.303109 -0.926118
v 6.659956 8.463062 -0.111323
v 6.659956 2.494223 -0.111323
v 0.298642 2.494223 -0.111323
v 0.298642 10.303109 -0.111323
v 4.819910 10.303109 -0.111323
vt 0.375000 0.000000
vt 0.625000 0.000000
vt 0.375000 0.250000
vt 0.375000 0.500000
vt 0.375000 0.750000
vt 0.625000 0.750000
vt 0.375000 1.000000
vt 0.625000 1.000000
vt 0.875000 0.000000
vt 0.125000 0.000000
vt 0.125000 0.250000
vt 0.449807 0.983747
vt 0.449807 0.925092
vt 0.556137 0.925092
vt 0.556137 0.983747
vt 0.625000 0.191091
vt 0.875000 0.191091
vt 0.625000 0.558909
vt 0.552686 0.500000
vt 0.552686 0.500000
vt 0.552686 0.250000
vt 0.552686 0.250000
vt 0.625000 0.191091
vt 0.375000 0.000000
vt 0.625000 0.000000
vt 0.625000 0.250000
vt 0.375000 0.250000
vt 0.625000 0.500000
vt 0.375000 0.500000
vt 0.625000 0.750000
vt 0.375000 0.750000
vt 0.625000 1.000000
vt 0.375000 1.000000
vt 0.875000 0.000000
vt 0.875000 0.250000
vt 0.125000 0.000000
vt 0.125000 0.250000
vt 0.329100 0.250000
vt 0.125000 0.250000
vt 0.125000 0.000000
vt 0.329100 0.000000
vt 0.674802 0.000000
vt 0.875000 0.000000
vt 0.875000 0.250000
vt 0.674802 0.250000
vt 0.375000 0.954100
vt 0.375000 0.750000
vt 0.625000 0.750000
vt 0.625000 0.950198
vt 0.603179 0.954100
vt 0.375000 0.500000
vt 0.625000 0.500000
vt 0.625000 0.299802
vt 0.375000 0.295900
vt 0.603179 0.295900
vt 0.556137 0.983747
vt 0.556137 0.925092
vt 0.449807 0.925092
vt 0.449807 0.983747
vt 0.125000 0.000000
vt 0.375000 0.000000
vt 0.375000 0.250000
vt 0.125000 0.250000
vt 0.875000 0.191091
vt 0.625000 0.191091
vt 0.625000 0.000000
vt 0.875000 0.000000
vt 0.375000 0.750000
vt 0.625000 0.750000
vt 0.625000 1.000000
vt 0.375000 1.000000
vt 0.552686 0.500000
vt 0.625000 0.558909
vt 0.375000 0.500000
vt 0.393958 0.731715
vt 0.606837 0.731715
vt 0.606838 0.568997
vt 0.545261 0.518835
vt 0.393958 0.518835
vt 0.552686 0.250000
vt 0.552686 0.500000
vt 0.625000 0.191091
vt 0.552686 0.250000
vt 0.606838 0.181003
vt 0.606837 0.018285
vt 0.393958 0.018285
vt 0.393958 0.231165
vt 0.545261 0.231165
vt 0.553533 0.955323
vt 0.556137 0.955323
vt 0.556137 0.955355
vt 0.449807 0.955355
vt 0.449807 0.939405
vt 0.556137 0.939405
vt 0.556137 0.939408
vt 0.553533 0.939408
vt 0.813979 0.176005
vt 0.813979 0.191091
vt 0.813993 0.191091
vt 0.813993 0.000000
vt 0.746013 0.000000
vt 0.746013 0.191091
vt 0.746147 0.191091
vt 0.746147 0.176005
vt 0.375000 0.811007
vt 0.375000 0.878987
vt 0.625000 0.878987
vt 0.625000 0.811007
vt 0.186007 0.250000
vt 0.253987 0.250000
vt 0.253987 0.000000
vt 0.186007 0.000000
vt 0.552686 0.438993
vt 0.552686 0.371013
vt 0.375000 0.371013
vt 0.375000 0.438993
vn 0.707107 0.707107 0.000000
vn 0.707107 0.707107 0.000000
vn 0.707107 0.707107 0.000000
vn 0.707107 0.707107 0.000000
vn -1.000000 0.000000 0.000000
vn -1.000000 0.000000 0.000000
vn -1.000000 0.000000 0.000000
vn -1.000000 0.000000 0.000000
vn 1.000000 0.000000 0.000000
vn 1.000000 0.000000 0.000000
vn 1.000000 0.000000 0.000000
vn 1.000000 0.000000 0.000000
vn 0.000000 -1.000000 0.000000
vn 0.000000 -1.000000 0.000000
vn 0.000000 -1.000000 0.000000
vn 0.000000 -1.000000 0.000000
vn 0.000000 0.000000 -1.000000
vn 0.000000 0.000000 -1.000000
vn 0.000000 0.000000 -1.000000
vn 0.000000 0.000000 -1.000000
vn 0.000000 0.000000 -1.000000
vn 0.000000 1.000000 0.000000
vn 0.000000 1.000000 0.000000
vn 0.000000 1.000000 0.000000
vn 0.000000 1.000000 0.000000
vn 0.000000 0.000000 1.000000
vn 0.000000 0.000000 1.000000
vn 0.000000 0.000000 1.000000
vn 0.000000 0.000000 1.000000
vn 0.000000 0.000000 1.000000
vn 0.000000 -1.000000 0.000000
vn 0.000000 -1.000000 0.000000
vn 0.000000 -1.000000 0.000000
vn 0.000000 -1.000000 0.000000
vn 0.000000 0.000000 1.000000
vn 0.000000 0.000000 1.000000
vn 0.000000 0.000000 1.000000
vn 0.000000 0.000000 1.000000
vn 0.000000 1.000000 0.000000
vn 0.000000 1.000000 0.000000
vn 0.000000 1.000000 0.000000
vn 0.000000 1.000000 0.000000
vn 0.000000 0.000000 -1.000000
vn 0.000000 0.000000 -1.000000
vn 0.000000 0.000000 -1.000000
vn 0.000000 0.000000 -1.000000
vn 1.000000 0.000000 0.000000
vn 1.000000 0.000000 0.000000
vn 1.000000 0.000000 0.000000
vn 1.000000 0.000000 0.000000
vn -1.000000 0.000000 0.000000
vn -1.000000 0.000000 0.000000
vn -1.000000 0.000000 0.000000
vn -1.000000 0.000000 0.000000
vn 0.000000 -1.000000 0.000000
vn 0.000000 -1.000000 0.000000
vn 0.000000 -1.000000 0.000000
vn 0.000000 -1.000000 0.000000
vn 0.000000 1.000000 0.000000
vn 0.000000 1.000000 0.000000
vn 0.000000 1.000000 0.000000
vn 0.000000 1.000000 0.000000
vn 0.000000 0.000000 -1.000000
vn 0.000000 0.000000 -1.000000
vn 0.000000 0.000000 -1.000000
vn 0.000000 0.000000 -1.000000
vn 0.000000 0.000000 -1.000000
vn -1.000000 0.000000 0.000000
vn -1.000000 0.000000 0.000000
vn -1.000000 0.000000 0.000000
vn -1.000000 0.000000 0.000000
vn 0.000000 0.000000 1.000000
vn 0.000000 0.000000 1.000000
vn 0.000000 0.000000 1.000000
vn 0.000000 0.000000 1.000000
vn 0.000000 0.000000 1.000000
vn 0.707107 0.707107 0.000000
vn 0.707107 0.707107 0.000000
vn 0.707107 0.707107 0.000000
vn 0.707107 0.707107 0.000000
vn -1.000000 0.000000 0.000000
vn -1.000000 0.000000 0.000000
vn -1.000000 0.000000 0.000000
vn -1.000000 0.000000 0.000000
vn 1.000000 0.000000 0.000000
vn 1.000000 0.000000 0.000000
vn 1.000000 0.000000 0.000000
vn 1.000000 0.000000 0.000000
vn 0.000000 -1.000000 0.000000
vn 0.000000 -1.000000 0.000000
vn 0.000000 -1.000000 0.000000
vn 0.000000 -1.000000 0.000000
vn -0.000000 0.000000 -1.000000
vn -0.000000 0.000000 -1.000000
vn -0.000000 0.000000 -1.000000
vn -0.000000 0.000000 -1.000000
vn -0.000000 0.000000 -1.000000
vn -0.000000 0.000000 -1.000000
vn -0.000000 0.000000 -1.000000
vn -0.000000 0.000000 -1.000000
vn -0.000000 0.000000 -1.000000
vn -0.000000 0.000000 -1.000000
vn 0.000000 1.000000 0.000000
vn 0.000000 1.000000 0.000000
vn 0.000000 1.000000 0.000000
vn 0.000000 1.000000 0.000000
vn 0.000000 0.000000 1.000000
vn 0.000000 0.000000 1.000000
vn 0.000000 0.000000 1.000000
vn 0.000000 0.000000 1.000000
vn 0.000000 0.000000 1.000000
vn 0.000000 0.000000 1.000000
vn 0.000000 0.000000 1.000000
vn 0.000000 0.000000 1.000000
vn 0.000000 0.000000 1.000000
vn 0.000000 0.000000 1.000000
vn -0.707107 -0.707107 0.000000
vn -0.707107 -0.707107 0.000000
vn -0.707107 -0.707107 0.000000
vn -0.707107 -0.707107 0.000000
vn -0.707107 -0.707107 0.000000
vn -0.707107 -0.707107 0.000000
vn -0.707107 -0.707107 0.000000
vn -0.707107 -0.707107 0.000000
vn -1.000000 0.000000 0.000000
vn -1.000000 0.000000 0.000000
vn -1.000000 0.000000 0.000000
vn -1.000000 0.000000 0.000000
vn -1.000000 0.000000 0.000000
vn -1.000000 0.000000 0.000000
vn -1.000000 0.000000 0.000000
vn -1.000000 0.000000 0.000000
vn 0.000000 1.000000 0.000000
vn 0.000000 1.000000 0.000000
vn 0.000000 1.000000 0.000000
vn 0.000000 1.000000 0.000000
vn 1.000000 -0.000000 0.000000
vn 1.000000 -0.000000 0.000000
vn 1.000000 -0.000000 0.000000
vn 1.000000 -0.000000 0.000000
vn 0.000000 -1.000000 0.000000
vn 0.000000 -1.000000 0.000000
vn 0.000000 -1.000000 0.000000
vn 0.000000 -1.000000 0.000000
s off
g polySurface8
usemtl lambert5SG
f 1/15/1 2/14/2 3/13/3 4/12/4
f 5/10/5 6/1/6 7/3/7 8/11/8
f 2/17/9 1/16/10 9/2/11 10/9/12
f 5/5/13 10/6/14 9/8/15 6/7/16
f 3/19/17 2/18/18 10/6/19 5/5/20 8/4/21
f 4/21/22 3/20/23 8/4/24 7/3/25
f 1/23/26 4/22/27 7/3/28 6/1/29 9/2/30
usemtl surfaceShader1SG
f 11/24/31 12/25/32 14/26/33 13/27/34
f 13/27/35 14/26/36 16/28/37 15/29/38
f 15/29/39 16/28/40 18/30/41 17/31/42
f 17/31/43 18/30/44 12/32/45 11/33/46
f 12/25/47 18/34/48 16/35/49 14/26/50
f 17/36/51 11/24/52 13/27/53 15/37/54
usemtl lambert6SG
f 19/38/55 20/39/56 21/40/57 22/41/58
f 23/42/59 24/43/60 25/44/61 26/45/62
f 22/46/63 21/47/64 24/48/65 23/49/66 27/50/67
f 20/51/68 25/52/69 24/48/70 21/47/71
f 26/53/72 25/52/73 20/51/74 19/54/75 28/55/76
f 29/56/77 30/57/78 31/58/79 32/59/80
f 33/60/81 34/61/82 35/62/83 36/63/84
f 30/64/85 29/65/86 37/66/87 38/67/88
f 33/68/89 38/69/90 37/70/91 34/71/92
f 31/72/93 30/73/94 38/69/95 33/68/96 36/74/97 39/75/98 40/76/99 41/77/100 42/78/101 43/79/102
f 32/80/103 31/81/104 36/74/105 35/62/106
f 29/82/107 32/83/108 35/62/109 34/61/110 37/66/111 44/84/112 45/85/113 46/86/114 47/87/115 48/88/116
f 26/89/117 28/90/118 44/91/119 48/92/120 42/93/121 41/94/122 27/95/123 23/96/124
f 22/97/125 27/98/126 41/99/127 40/100/128 45/101/129 44/102/130 28/103/131 19/104/132
f 39/105/133 46/106/134 45/107/135 40/108/136
f 43/109/137 47/110/138 46/111/139 39/112/140
f 42/113/141 48/114/142 47/115/143 43/116/144
